#N canvas 33 56 1887 1024 10;
#X obj 409 198 pack 0 0;
#X obj 409 247 pack 0 0 0;
#X obj 40 367 loadbang;
#X obj 40 389 metro 10;
#X obj 40 411 s metro;
#X obj 409 269 route 1 2 3 4, f 36;
#X obj 118 115 s c1;
#X obj 119 147 s c2;
#X obj 119 177 s c3;
#X obj 120 207 s c4;
#X obj 120 238 s c5;
#X obj 121 267 s c6;
#X obj 122 300 s c7;
#X obj 123 332 s c8;
#X obj 37 85 ctlin 1 0;
#X obj 38 117 ctlin 2 0;
#X obj 38 147 ctlin 3 0;
#X obj 39 177 ctlin 4 0;
#X obj 39 208 ctlin 5 0;
#X obj 40 237 ctlin 6 0;
#X obj 41 270 ctlin 7 0;
#X obj 42 302 ctlin 8 0;
#X obj 409 169 notein 0;
#X text 400 135 Voice management;
#X text 397 47 Voices;
#X text 395 429 Post-effects and output;
#X text 14 48 Midi CC routing;
#X text 14 58 ---------------;
#X text 164 114 gain;
#X text 165 146 attack/release;
#X text 165 176 cutoff (pre-FX);
#X text 166 206 osc2 detune;
#X text 166 237 delay length;
#X text 167 266 delay feedback;
#X text 168 299 cutoff (post-FX);
#X text 169 331 sub-oscillator gain;
#X obj 400 496 catch~ output-1;
#X obj 666 497 catch~ output-3;
#X obj 799 497 catch~ output-4;
#X obj 400 681 dac~ 1 2;
#X obj 528 497 catch~ output-2;
#X text 13 8 base synth taken from https://patchstorage.com/instruments-poly-midi-synth/
;
#X obj 414 301 s sinevoice-note-1;
#X obj 531 300 s sinevoice-note-2;
#X obj 647 301 s sinevoice-note-3;
#X obj 763 300 s sinevoice-note-4;
#X obj 405 78 sinevoice 1;
#X obj 399 653 *~ 0.25;
#X text 362 724 main 4 oscillator output;
#X obj 400 630 +~;
#X obj 625 593 +~;
#X obj 400 595 +~;
#X obj 413 340 s adsr-note-1;
#X obj 530 339 s adsr-note-2;
#X obj 646 340 s adsr-note-3;
#X obj 762 339 s adsr-note-4;
#X obj 1088 162 adsr 1;
#X obj 400 557 *~;
#X obj 414 523 catch~ adsr-amp-1;
#X obj 527 554 *~;
#X obj 667 560 *~;
#X obj 799 560 *~;
#X obj 543 526 catch~ adsr-amp-2;
#X obj 681 527 catch~ adsr-amp-3;
#X obj 813 527 catch~ adsr-amp-4;
#X obj 486 78 sinevoice 2;
#X obj 567 78 sinevoice 3;
#X obj 641 78 sinevoice 4;
#X obj 527 648 scope;
#X text 1059 111 Master ADSR Params;
#X floatatom 1224 111 5 0 0 0 - - -, f 5;
#X floatatom 1303 110 5 0 0 0 - - -, f 5;
#X floatatom 1185 111 5 0 0 0 - - -, f 5;
#X floatatom 1264 111 5 0 100 0 - - -, f 5;
#X text 1189 78 A D S R;
#X obj 1182 162 adsr 2;
#X obj 1274 162 adsr 3;
#X obj 1366 162 adsr 4;
#X obj 411 224 poly 4 0;
#X text 395 449 ------------------------------------------------------------
;
#X text 759 58 ------------------------------------------------------------
;
#X text 396 58 ------------------------------------------------------------
;
#X text 1300 58 ------------------------------------------------------------
;
#X text 1054 58 ------------------------------------------------------------
;
#X text 398 150 ------------------------------------------------------------
;
#X text 760 150 -------------------------------;
#X text 581 411 ------------------------------------------------------------
;
#X text 395 411 ------------------------------------------------------------
;
#X text 581 449 ------------------------------------------------------------
;
#X text 584 123 ------------------------------------------------------------
;
#X text 398 123 ------------------------------------------------------------
;
#X text 582 27 ------------------------------------------------------------
;
#X text 396 27 ------------------------------------------------------------
;
#X text 1300 27 ------------------------------------------------------------
;
#X text 941 27 ------------------------------------------------------------
;
#X text 1058 43 Effects and VCA (ADSR);
#X connect 0 0 78 0;
#X connect 1 0 5 0;
#X connect 2 0 3 0;
#X connect 3 0 4 0;
#X connect 5 0 42 0;
#X connect 5 0 52 0;
#X connect 5 1 43 0;
#X connect 5 1 53 0;
#X connect 5 2 44 0;
#X connect 5 2 54 0;
#X connect 5 3 45 0;
#X connect 5 3 55 0;
#X connect 14 0 6 0;
#X connect 15 0 7 0;
#X connect 16 0 8 0;
#X connect 17 0 9 0;
#X connect 18 0 10 0;
#X connect 19 0 11 0;
#X connect 20 0 12 0;
#X connect 21 0 13 0;
#X connect 22 0 0 0;
#X connect 22 1 0 1;
#X connect 36 0 57 0;
#X connect 37 0 60 0;
#X connect 38 0 61 0;
#X connect 40 0 59 0;
#X connect 47 0 39 0;
#X connect 47 0 39 1;
#X connect 49 0 47 0;
#X connect 49 0 68 0;
#X connect 50 0 49 1;
#X connect 51 0 49 0;
#X connect 57 0 51 0;
#X connect 58 0 57 1;
#X connect 59 0 51 1;
#X connect 60 0 50 0;
#X connect 61 0 50 1;
#X connect 62 0 59 1;
#X connect 63 0 60 1;
#X connect 64 0 61 1;
#X connect 70 0 56 1;
#X connect 70 0 75 1;
#X connect 70 0 76 1;
#X connect 70 0 77 1;
#X connect 71 0 56 3;
#X connect 71 0 75 3;
#X connect 71 0 76 3;
#X connect 71 0 77 3;
#X connect 72 0 56 0;
#X connect 72 0 75 0;
#X connect 72 0 76 0;
#X connect 72 0 77 0;
#X connect 73 0 56 2;
#X connect 73 0 75 2;
#X connect 73 0 76 2;
#X connect 73 0 77 2;
#X connect 78 0 1 0;
#X connect 78 1 1 1;
#X connect 78 2 1 2;
