#N canvas 33 56 1887 1024 10;
#X obj 409 198 pack 0 0;
#X obj 409 247 pack 0 0 0;
#X obj 79 742 loadbang;
#X obj 79 764 metro 10;
#X obj 79 786 s metro;
#X obj 409 269 route 1 2 3 4, f 36;
#X obj 159 243 s c1;
#X obj 159 303 s c2;
#X obj 159 363 s c3;
#X obj 159 423 s c4;
#X obj 159 483 s c5;
#X obj 159 543 s c6;
#X obj 159 603 s c7;
#X obj 159 663 s c8;
#X obj 78 213 ctlin 1 0;
#X obj 78 273 ctlin 2 0;
#X obj 78 333 ctlin 3 0;
#X obj 78 393 ctlin 4 0;
#X obj 78 453 ctlin 5 0;
#X obj 78 513 ctlin 6 0;
#X obj 78 573 ctlin 7 0;
#X obj 78 633 ctlin 8 0;
#X obj 409 169 notein 0;
#X text 400 135 Voice management;
#X text 400 145 ----------------;
#X text 599 77 Voices;
#X text 599 87 ------;
#X text 395 403 Post-effects and output;
#X text 395 423 -----------------------;
#X text 80 146 Midi CC routing;
#X text 80 156 ---------------;
#X text 205 242 gain;
#X text 205 302 attack/release;
#X text 205 362 cutoff (pre-FX);
#X text 205 422 osc2 detune;
#X text 205 482 delay length;
#X text 205 542 delay feedback;
#X text 205 602 cutoff (post-FX);
#X text 205 662 sub-oscillator gain;
#X obj 750 513 catch~ output-1;
#X obj 1016 514 catch~ output-3;
#X obj 1149 514 catch~ output-4;
#X obj 617 963 dac~ 1 2;
#X obj 878 514 catch~ output-2;
#X text 71 55 base synth taken from https://patchstorage.com/instruments-poly-midi-synth/
;
#X obj 414 301 s sinevoice-note-1;
#X obj 531 300 s sinevoice-note-2;
#X obj 647 301 s sinevoice-note-3;
#X obj 763 300 s sinevoice-note-4;
#X obj 607 108 sinevoice 1;
#X text 1290 511 main 4 oscillator output;
#X obj 749 661 +~;
#X obj 974 624 +~;
#X obj 749 626 +~;
#X text 1111 91 ------;
#X text 1087 81 VCA (ADSR);
#X obj 413 340 s adsr-note-1;
#X obj 530 339 s adsr-note-2;
#X obj 646 340 s adsr-note-3;
#X obj 762 339 s adsr-note-4;
#X obj 1111 176 adsr 1;
#X obj 750 574 *~;
#X obj 764 540 catch~ adsr-amp-1;
#X obj 877 571 *~;
#X obj 1017 577 *~;
#X obj 1149 577 *~;
#X obj 893 543 catch~ adsr-amp-2;
#X obj 1031 544 catch~ adsr-amp-3;
#X obj 1163 544 catch~ adsr-amp-4;
#X obj 688 108 sinevoice 2;
#X obj 769 108 sinevoice 3;
#X obj 843 108 sinevoice 4;
#X text 1082 125 Master ADSR Params;
#X floatatom 1247 125 5 0 0 0 - - -, f 5;
#X floatatom 1326 124 5 0 0 0 - - -, f 5;
#X floatatom 1208 125 5 0 0 0 - - -, f 5;
#X floatatom 1287 125 5 0 100 0 - - -, f 5;
#X obj 1205 176 adsr 2;
#X obj 1297 176 adsr 3;
#X obj 1389 176 adsr 4;
#X text 1337 90 R;
#X text 1295 90 S;
#X text 1252 89 D;
#X text 1212 90 A;
#X obj 411 224 poly 1 0;
#X text 479 223 < make 2 argument 1 to enable voice stealing;
#X obj 1491 782 scope 0;
#X obj 1492 548 scope 1;
#X text 396 444 FM;
#X obj 265 889 osc~;
#X obj 297 944 *~;
#X obj 265 853 nbx 5 14 -1e+37 1e+37 0 0 empty empty empty 0 -8 0 10
-262144 -1 -1 0 256;
#X obj 353 857 nbx 5 14 -1e+37 1e+37 0 0 empty empty empty 0 -8 0 10
-262144 -1 -1 3425.2 256;
#X obj 338 830 hsl 128 15 0 5000 0 0 empty empty empty -2 -8 0 10 -262144
-1 -1 8700 1;
#X obj 275 799 hsl 128 15 0 127 0 0 empty empty empty -2 -8 0 10 -262144
-1 -1 0 1;
#X obj 619 927 *~ 0.05;
#X obj 824 714 *~;
#X obj 823 745 osc~;
#X obj 823 776 *~;
#X obj 747 816 +~;
#X obj 930 703 hsl 128 15 0 127 0 0 empty empty empty -2 -8 0 10 -262144
-1 -1 300 1;
#X obj 929 778 hsl 128 15 0 3000 0 0 empty empty empty -2 -8 0 10 -262144
-1 -1 8700 1;
#X obj 870 703 nbx 5 14 -1e+37 1e+37 0 0 empty empty empty 0 -8 0 10
-262144 -1 -1 3 256;
#X obj 868 778 nbx 5 14 -1e+37 1e+37 0 0 empty empty empty 0 -8 0 10
-262144 -1 -1 2055.12 256;
#X obj 747 853 osc~;
#X connect 0 0 84 0;
#X connect 1 0 5 0;
#X connect 2 0 3 0;
#X connect 3 0 4 0;
#X connect 5 0 45 0;
#X connect 5 0 56 0;
#X connect 5 1 46 0;
#X connect 5 1 57 0;
#X connect 5 2 47 0;
#X connect 5 2 58 0;
#X connect 5 3 48 0;
#X connect 5 3 59 0;
#X connect 14 0 6 0;
#X connect 15 0 7 0;
#X connect 16 0 8 0;
#X connect 17 0 9 0;
#X connect 18 0 10 0;
#X connect 19 0 11 0;
#X connect 20 0 12 0;
#X connect 21 0 13 0;
#X connect 22 0 0 0;
#X connect 22 1 0 1;
#X connect 39 0 61 0;
#X connect 40 0 64 0;
#X connect 41 0 65 0;
#X connect 43 0 63 0;
#X connect 51 0 87 0;
#X connect 51 0 96 0;
#X connect 51 0 99 0;
#X connect 52 0 51 1;
#X connect 53 0 51 0;
#X connect 61 0 53 0;
#X connect 62 0 61 1;
#X connect 63 0 53 1;
#X connect 64 0 52 0;
#X connect 65 0 52 1;
#X connect 66 0 63 1;
#X connect 67 0 64 1;
#X connect 68 0 65 1;
#X connect 73 0 60 1;
#X connect 73 0 77 1;
#X connect 73 0 78 1;
#X connect 73 0 79 1;
#X connect 74 0 60 3;
#X connect 74 0 77 3;
#X connect 74 0 78 3;
#X connect 74 0 79 3;
#X connect 75 0 60 0;
#X connect 75 0 77 0;
#X connect 75 0 78 0;
#X connect 75 0 79 0;
#X connect 76 0 60 2;
#X connect 76 0 77 2;
#X connect 76 0 78 2;
#X connect 76 0 79 2;
#X connect 84 0 1 0;
#X connect 84 1 1 1;
#X connect 84 2 1 2;
#X connect 89 0 90 0;
#X connect 91 0 89 0;
#X connect 92 0 90 1;
#X connect 93 0 92 0;
#X connect 94 0 91 0;
#X connect 96 0 97 0;
#X connect 97 0 98 0;
#X connect 98 0 99 1;
#X connect 99 0 104 0;
#X connect 100 0 102 0;
#X connect 101 0 103 0;
#X connect 102 0 96 1;
#X connect 103 0 98 1;
#X connect 104 0 86 0;
