#N canvas 138 434 965 587 10;
#X text 451 327 attack;
#X text 861 403 release;
#X obj 455 355 bng 15 250 50 0 empty empty empty 0 -6 0 8 -262144 -1
-1;
#X msg 599 317 stop;
#X obj 625 420 line~;
#X text 632 307 decay;
#X text 806 316 sustain;
#X obj 547 195 unpack 0 0;
#X obj 604 233 route 0;
#X obj 546 173 r adsr-note-\$1;
#X obj 623 480 throw~ adsr-amp-\$1;
#X obj 388 11 cnv 15 100 60 empty empty ADSR 20 12 0 14 -233017 -66577
0;
#X text 108 129 A;
#X text 108 157 D;
#X text 108 181 S;
#X text 108 205 R;
#X floatatom 136 156 5 0 0 0 - - -, f 5;
#X floatatom 136 182 5 0 100 0 - - -, f 5;
#X floatatom 136 206 5 0 0 0 - - -, f 5;
#X floatatom 137 129 5 0 0 0 - - -, f 5;
#X obj 54 118 inlet;
#X obj 53 147 inlet;
#X obj 41 216 inlet;
#X obj 40 78 inlet;
#X text 106 238 ADR in ms;
#X obj 794 339 bng 15 250 50 0 empty empty empty 0 -6 0 8 -262144 -1
-1;
#X obj 604 364 del;
#X obj 589 392 bng 15 250 50 0 empty empty empty 0 -6 0 8 -262144 -1
-1;
#X msg 625 392 0.1 1673;
#X obj 188 129 s attackVal;
#X obj 211 157 s decayVal;
#X obj 211 180 s sustainVal;
#X obj 188 207 s releaseVal;
#X obj 370 357 r attackVal;
#X msg 456 416 1 3272;
#X obj 832 344 r releaseVal;
#X msg 800 410 0 2235;
#X msg 370 390 set 1 \$1;
#X msg 834 373 set 0 \$1;
#X text 510 13 There may be a flaw in this implementation: the line
object will take x amount of time to get to amplitude y \, no matter
the initial state of the amplitude. ***;
#X obj 55 360 r decayVal;
#X obj 133 360 r sustainVal;
#X obj 55 389 pack 0 0;
#X obj 188 181 bng 15 250 50 0 empty empty empty 17 7 0 10 -262144
-1 -1;
#X obj 188 157 bng 15 250 50 0 empty empty empty 17 7 0 10 -262144
-1 -1;
#X floatatom 636 351 5 0 0 0 - - -, f 5;
#X obj 673 350 r attackVal;
#X msg 55 415 set \$2 \$1;
#X obj 189 53 loadbang;
#X obj 130 404 * 0.01;
#X text 57 308 set up decay line messages. since it needs 2 arguments
this is a special case.;
#X connect 2 0 34 0;
#X connect 2 0 26 0;
#X connect 3 0 26 0;
#X connect 4 0 10 0;
#X connect 7 1 8 0;
#X connect 8 0 25 0;
#X connect 8 1 2 0;
#X connect 9 0 7 0;
#X connect 16 0 30 0;
#X connect 16 0 43 0;
#X connect 17 0 31 0;
#X connect 17 0 44 0;
#X connect 18 0 32 0;
#X connect 19 0 29 0;
#X connect 20 0 18 0;
#X connect 21 0 17 0;
#X connect 22 0 16 0;
#X connect 23 0 19 0;
#X connect 25 0 36 0;
#X connect 25 0 3 0;
#X connect 26 0 28 0;
#X connect 26 0 27 0;
#X connect 28 0 4 0;
#X connect 33 0 37 0;
#X connect 34 0 4 0;
#X connect 35 0 38 0;
#X connect 36 0 4 0;
#X connect 37 0 34 0;
#X connect 38 0 36 0;
#X connect 40 0 42 0;
#X connect 41 0 49 0;
#X connect 42 0 47 0;
#X connect 43 0 31 0;
#X connect 44 0 30 0;
#X connect 45 0 26 1;
#X connect 46 0 45 0;
#X connect 47 0 28 0;
#X connect 48 0 29 0;
#X connect 48 0 44 0;
#X connect 48 0 43 0;
#X connect 48 0 32 0;
#X connect 49 0 42 1;
#X coords 0 -1 1 1 85 160 1 100 100;
