#N canvas 1962 439 1012 684 10;
#X obj 82 76 unpack 0 0;
#X obj 82 142 mtof;
#X obj 82 164 t f f;
#X obj 82 98 t f f;
#X obj 109 120 s \$0-midinote;
#X floatatom 271 94 5 0 0 0 - - -, f 5;
#X floatatom 81 292 5 0 0 0 - - -, f 5;
#X obj 82 338 osc~;
#X obj 83 381 *~;
#X msg 175 304 0;
#X msg 127 304 0.6;
#X obj 84 425 throw~ output-\$1;
#X obj 82 54 r sinevoice-note-\$1;
#X obj 271 154 route 0;
#X connect 0 0 3 0;
#X connect 0 1 5 0;
#X connect 1 0 2 0;
#X connect 2 0 6 0;
#X connect 3 0 1 0;
#X connect 3 1 4 0;
#X connect 5 0 10 0;
#X connect 5 0 13 0;
#X connect 6 0 7 0;
#X connect 7 0 8 0;
#X connect 8 0 11 0;
#X connect 9 0 8 1;
#X connect 10 0 8 1;
#X connect 12 0 0 0;
